<svg id="Camada_1" data-name="Camada 1" xmlns="http://www.w3.org/2000/svg" viewBox="0 0 35.35 7.16"><defs><style>.cls-1{fill:#fff;}</style></defs><title>zup-dribbble</title><path class="cls-1" d="M24.12,1.63a.28.28,0,0,1,.23.34.39.39,0,0,1-.41.41c-.2,0-.25-.12-.24-.3A.47.47,0,0,1,24.12,1.63Z" transform="translate(0 -0.04)"/><path class="cls-1" d="M35.27,3.33c-.09-.07-.15,0-.21.06s-.27.31-.42.45A.7.7,0,0,1,34,4a.3.3,0,0,1-.24-.25c0-.11.13-.11.21-.14A1,1,0,0,0,34.56,3a.48.48,0,0,0-.12-.56.48.48,0,0,0-.61,0,1.18,1.18,0,0,0-.54.83,2.53,2.53,0,0,1-.31.7.41.41,0,0,1-.42.27c-.19,0-.26-.19-.33-.33a.55.55,0,0,1,.06-.63,4.67,4.67,0,0,0,.52-.91,2.74,2.74,0,0,0,.3-1.17c0-.25-.07-.48-.33-.55s-.41.09-.53.29a2.65,2.65,0,0,0-.29.67,5.81,5.81,0,0,0-.26,1.73c0,.25-.16.32-.36.35s-.2,0-.19-.17A.37.37,0,0,0,30.91,3a.31.31,0,0,0-.37.1.46.46,0,0,0,0,.54c.12.16.14.28,0,.42s-.21.28-.4.24-.25-.23-.29-.41A.53.53,0,0,1,30,3.37a4,4,0,0,0,1.13-1.86.86.86,0,0,0-.29-.95c-.27-.11-.59.08-.81.52a5.94,5.94,0,0,0-.59,2.14.37.37,0,0,1-.39.38c-.29,0-.15-.19-.18-.3S28.67,3,28.44,3s-.28.19-.26.39a1,1,0,0,0,.14.37c.13.25-.13.35-.26.48a.23.23,0,0,1-.36,0,.66.66,0,0,1,0-.84,5,5,0,0,0,1-1.36A1.46,1.46,0,0,0,28.79.9c-.16-.42-.49-.5-.81-.18a1.89,1.89,0,0,0-.41.69,6.25,6.25,0,0,0-.43,1.77.38.38,0,0,1-.36.41c-.31.05-.18-.18-.22-.31A.34.34,0,0,0,26.14,3c-.22,0-.27.2-.25.4a.7.7,0,0,0,.13.34c.18.26-.1.35-.22.49a.24.24,0,0,1-.39,0,.66.66,0,0,1,0-.84,5.1,5.1,0,0,0,1-1.36A1.46,1.46,0,0,0,26.48.82a.43.43,0,0,0-.7-.17,1.31,1.31,0,0,0-.35.45,5.83,5.83,0,0,0-.57,2,1.49,1.49,0,0,1-.4.86c-.12.13-.25.34-.46.23s-.12-.34-.11-.52.09-.4.12-.6,0-.26-.14-.29a.22.22,0,0,0-.26.16,2.14,2.14,0,0,0-.1.39,1.38,1.38,0,0,1-.36.72.35.35,0,0,1-.4.13.33.33,0,0,1-.18-.34,1.55,1.55,0,0,1,.15-.75c.09-.15.18-.32,0-.42s-.27.1-.35.24-.17.32-.44.3l.19-.51A.23.23,0,0,0,22,2.36c-.12-.06-.21,0-.27.12a1.1,1.1,0,0,0-.25.72,1.1,1.1,0,0,1-.21.64c-.08.14-.19.27-.39.25s-.24-.19-.33-.33,0-.31.07-.45a4.31,4.31,0,0,0,.46-2c0-.23,0-.49-.31-.56s-.43.2-.51.42a6,6,0,0,0-.24.9.24.24,0,0,1-.18.22,1.8,1.8,0,0,0-1,1.94.49.49,0,0,0,.7.33,2,2,0,0,0,.64-.49c.61.6,1.08.54,1.45-.22a.57.57,0,0,1,.54-.35c0,.37-.12.79.27,1s.72-.06,1-.32c.27.57.61.54,1.34-.09.49.84.94.85,1.54,0,0,0,0-.05,0-.07.18-.18.43-.12.64-.17s.1.19.14.29c.24.61.83.75,1.23.22a1.21,1.21,0,0,1,1-.52c.08.35.16.71.57.82a.7.7,0,0,0,.78-.33,1.09,1.09,0,0,1,.77-.48c.22-.06.25,0,.33.17a.71.71,0,0,0,1.22.25,1.14,1.14,0,0,0,.17-.17c.08-.11.13-.1.24,0a1.22,1.22,0,0,0,1.84-.62A.18.18,0,0,0,35.27,3.33ZM30.42,1.17c0-.08.09-.23.23-.18s.1.18.09.29A2.92,2.92,0,0,1,29.84,3,5.93,5.93,0,0,1,30.42,1.17ZM19.67,4.11c-.08.08-.18.19-.32.1a.32.32,0,0,1-.13-.32,2.09,2.09,0,0,1,.38-1c.06-.08.14-.19.26-.17s.12.19.12.3,0,.16,0,.28C20.12,3.64,19.91,3.89,19.67,4.11Zm.75-1.31a.37.37,0,0,1,0,.12c0,.06-.06,0-.07,0a.81.81,0,0,1,.06-.55,1.89,1.89,0,0,1,.29-1,2.55,2.55,0,0,1-.27,1.47h0ZM25.8,1.22c.05-.1.11-.27.24-.23s.12.23.1.36A3.09,3.09,0,0,1,25.23,3,6.71,6.71,0,0,1,25.8,1.22Zm2.32,0c0-.09.09-.23.23-.18s.1.18.09.29A3,3,0,0,1,27.54,3,6,6,0,0,1,28.13,1.17ZM32.72.91a2.45,2.45,0,0,1-.59,1.79A2.86,2.86,0,0,1,32.72.91Zm1,2.22c.07-.19.12-.4.36-.44s.13.09.14.21a.48.48,0,0,1-.41.37C33.7,3.28,33.68,3.2,33.7,3.13Z" transform="translate(0 -0.04)"/><path class="cls-1" d="M10.39,3.39c-.1-.1-.2,0-.29,0s-.16.22-.32.22c0-1.12-.59-1.4-1.72-.81A2.05,2.05,0,0,0,8,2.27c0-.12-.09-.2-.23-.17a.22.22,0,0,0-.17.25A4.61,4.61,0,0,0,7.64,3,1.14,1.14,0,0,1,7.17,4c-.13.12-.3.22-.47.07a.4.4,0,0,1-.11-.51,1,1,0,0,0,.16-.45c0-.11,0-.23-.12-.27s-.23,0-.31.13a1.31,1.31,0,0,0-.2.61.88.88,0,0,1-.58.63c-.13.06-.25.07-.3-.19a1.42,1.42,0,0,1,.19-.92c.06-.14.12-.31-.07-.39s-.27.07-.33.21a1.34,1.34,0,0,0-.15.46c0,.47-.36.52-.69.63s-.25-.24-.4-.32-.2-.2-.32-.25c-.33-.14-.25-.29,0-.48a2.2,2.2,0,0,0,.53-.81A1.11,1.11,0,0,0,3.4.68,1.94,1.94,0,0,0,1.94.47,2.86,2.86,0,0,0,.17,1.61a.62.62,0,0,0-.08.72c.16.25.4.24.65.21a1.33,1.33,0,0,0,.46-.15c.1,0,.17-.12.14-.22S1.19,2,1.07,2.08s-.21,0-.32.07-.18.05-.27,0,0-.21,0-.29A2.18,2.18,0,0,1,3,.9.91.91,0,0,1,3.45,2.3a3.69,3.69,0,0,1-.34.46.79.79,0,0,1-.83.36,1,1,0,0,0-.7.17.37.37,0,0,0-.19.44c.06.2.24.23.39.23a1.37,1.37,0,0,0,.62-.18.75.75,0,0,1,1,.25c.13.16.14.26-.07.37a6.8,6.8,0,0,0-1.22.74,2.64,2.64,0,0,0-1,1.15A.67.67,0,0,0,1.26,7a.64.64,0,0,0,.68.18,2.19,2.19,0,0,0,.84-.4A3.14,3.14,0,0,0,4,4.72c0-.29.23-.32.43-.39a.32.32,0,0,1,.46.14.45.45,0,0,0,.58.15,2.21,2.21,0,0,0,.55-.34c.07-.05.11-.14.21,0a.68.68,0,0,0,.89.23,3.71,3.71,0,0,0,.17,2c.08.17.2.32.4.29s.21-.21.24-.38c.12-.69,0-1.39.08-2.09l.44.11a2.06,2.06,0,0,0,1.85-.71C10.41,3.59,10.48,3.48,10.39,3.39ZM1.86,6.79c-.26.06-.4-.13-.33-.39a1.15,1.15,0,0,1,.32-.51A6.57,6.57,0,0,1,3.59,4.71,2.42,2.42,0,0,1,1.86,6.79Zm5.79-1V6A2.21,2.21,0,0,1,7.56,4.5h0l.09-.27A4.82,4.82,0,0,1,7.65,5.76ZM8.63,4c-.2-.08-.59,0-.59-.43a.77.77,0,0,1,.81-.64c.37,0,.48.27.49.58S9.12,4,8.63,4Z" transform="translate(0 -0.04)"/><path class="cls-1" d="M17,4a.46.46,0,0,0-.44-.31c-.21,0-.54-.16-.6.12s.3.19.46.29c-.37.38-.46.38-.83,0a7.19,7.19,0,0,1-.89-1c-.33-.43-.33-.41.09-.74A3.18,3.18,0,0,0,16.1.93.63.63,0,0,0,15.5,0a1.21,1.21,0,0,0-1.16.53,2.18,2.18,0,0,0-.38.94c-.05.32.08.72-.07,1s-.58.31-.86.51c-.83.58-.75,1.34.18,1.78a3.75,3.75,0,0,0,2.16.2c.32,0,.63-.15.91.11a.23.23,0,0,0,.3,0c.08-.06.1-.17.06-.21-.21-.23,0-.27.14-.37S17.1,4.26,17,4Zm-2.52-3a1,1,0,0,1,.31-.42.65.65,0,0,1,.79-.09c.24.2,0,.49-.12.69a4.34,4.34,0,0,1-1.16,1.06A2.6,2.6,0,0,1,14.52,1.05ZM13.46,4.42c-.24-.1-.48-.23-.51-.53s.18-.43.39-.58l.13-.09c.51-.32.5-.32.89.17a5.74,5.74,0,0,0,1.17,1.15A3.74,3.74,0,0,1,13.46,4.42Z" transform="translate(0 -0.04)"/></svg>